<svg width="347" height="449" xmlns="http://www.w3.org/2000/svg"><g fill="#FFF" fill-rule="evenodd"><path d="M8.034 37.82l1.486-.603c2.022 6.467 2.717 12.827 4.315 19.312-.196 1.627-2.056 1.074-2.519-.096-.392-2.547-1.06-6.011-1.48-8.553-2.043.503-4.058 1.17-6.233 1.412.598 2.908 1.312 5.825 1.932 8.7-.196 1.627-2.056 1.074-2.519-.095C2.201 51.984.766 44.817.09 38.88l1.262.062c.6 2.595 1.425 6.146 1.97 8.75a474.77 474.77 0 0 0 6.106-1.645c.028-.005.06.018-1.394-8.227zm5.41 4.392l1.261.061c.049.276.097.552.174.823 2.675-2.405 5.571-1.779 7.456.363 2.042 2.227 2.305 6.786 1.752 9.613-.562 2.943-4.05 3.956-6.518 3.026.464 2.307.932 4.64 1.428 6.97-.196 1.627-2.057 1.074-2.519-.096-1.022-6.928-2.012-13.833-3.035-20.76zm1.966 2.61l1.615 8.671c1.198 1.637 4.548 1.444 5.013-1.396.42-2.462.2-7.256-2.075-8.704-.903-.608-4.366.23-4.553 1.429zm9.869-2.082l-.767-1.286c1.408-2.011 4.855-3.102 6.697-1.522 3.17 2.654 3.029 9.275 3.752 12.73-.203 1.912-2.34.754-2.298-.618-1.169 1.599-2.917 2.646-4.67 2.216-4.707-1.217-2.752-7.703.204-9.646.663-.43 2.008-.866 2.955-.976-.277-1.088-.584-1.859-.876-2.063-1.48-1.303-3.292-.614-4.997 1.165zm7.113 7.446c-.246-1.719-.545-3.571-.904-5.128-2.64.351-4.528 2.703-4.467 5.308.023 1.9 1.805 2.496 2.944 1.698.664-.43 1.848-1.292 2.427-1.878zM34.325 38.9l2.802-1.205c1.675-.494 2.983-.98 4.793-.39 1.897.604 1.992 4.852.815 5.913 2.468 1.1 3.311 3.624 2.695 6.092-.87 3.452-6.9 4.572-9.426 2.657a738.586 738.586 0 0 1-.97-7.59l-.004-.028-.705-5.449zm2.708 6.489l1.211 5.416c3.521.942 8.34-4.143 3.368-6.537-2.63.407-3.023.59-4.579 1.12zm-1.253-5.494c.26 1.148.663 2.953.922 4.102 1.927-.681 4.865-.147 4.556-4.642-.797-1.451-3.535.112-5.478.54zm14.071 8.209c.073.414.174.822.27 1.204-.197 1.626-2.057 1.073-2.52-.097-.524-3.944-1.2-8.26-1.738-12.118l1.202-.44c1.118 2.96 1.118 4.893 2.162 8.718 1.344-3.023 3.638-6.783 4.65-9.748 1.275-.509 1.608-.397 2.075 1.767.758 3.335 1.715 7.63 2.478 10.993-.196 1.626-2.057 1.073-2.519-.097-.337-2.556-.96-6.739-1.275-9.328-1.564 2.579-3.78 6.296-4.785 9.146zm7.481-11.754l-.457-1.142c3.766-.891 7.51-1.75 11.254-2.61 1.563-.161 2.727 1.766.914 2.285l-5.09.641c.924 3.79 1.407 7.656 2.28 11.483-.206 1.571-2.001 1.063-2.458-.079-.431-3.734-.867-7.495-1.188-11.248l-5.255.67zm13.228-3.668l1.262.061c.415 1.548.853 3.063 1.29 4.578 6.73-3.433 11.787 5.57 5.303 8.305-1.298.542-5.396.838-5.458.167-.591-4.16-1.948-8.954-2.397-13.111zm3.065 6.255l.732 5.443c6.92 1.196 6.535-8.09-.732-5.443zM89.75 29.61l.067 1.182c-3.149.043-4.416.92-5.15 2.074-1.084 2.721-1.351 6.209.342 9.038.864 1.354 2.69 1.06 5.486-.171.984-.544 1.424-.792 1.91.999-2.88 1.56-7.786 2.766-9.211.004-1.331-2.552-2.315-8.776-.146-11.632.946-1.247 4.9-2.2 6.702-1.494zm11.966-2.764l2.966 14.404c-.206 1.571-2.001 1.063-2.459-.079-.257-1.944-.52-3.917-.782-5.89a4.582 4.582 0 0 1-2.185 1.154c-.578 4.622-1.834 6.692-6.215 8.772l-.646-1.08c3.507-1.557 4.697-4.325 4.564-7.657-1.744-.375-3.307-1.663-3.717-3.666-.43-2.114.036-4.47 2.695-5.195 2.277-.629 3.987-.93 5.779-.763zm-.453 6.136l-.887-4.222c-1.896.05-5.58-.04-5.55 2.712.098 3.452 5.405 4.848 6.437 1.51zm10.924-4.798l-.45-1.428c8.253-1.569 4.999-.995 14.809-2.924 1.591-.166 2.342 1.35.528 1.869-7.5 1.322-5.621.85-14.887 2.483zm25.378-7.489l.125.064-.043-.078c2.09-.568 4.545-1.313 6.607-1.876 1.591-.167 2.765 1.815.952 2.334-2.042.19-4.122.329-6.191.523.802 3.1 1.471 6.252 2.191 9.366.216.9.762 2.225.149 3.101-2.566 1.249-2.142-1.67-2.41-3.186-.436-3.278-1.055-6.95-1.38-10.248zm11.244-1.698c.629-1.106 2.417-1.45 3.746-1.002 3.95.953 5.821 5.599 5.222 10.424-.188 1.512-1.723 4.256-3.688 4.403-1.49.092-3.647-.693-4.666-1.793-2.562-2.76-2.213-9.163-.614-12.032zm2.262.255c-2.001.58-1.649 6.29-1.297 7.962.431 2.767 3.806 5.3 5.416 2.173 2.057-3.974-.038-10.371-4.119-10.135zm5.571 14.826l-.645-1.08c4.947-1.129 2.84-8.889 2.37-12.36-.123-.86-.814-2.842-.37-3.546.44-.731 5.347-1.283 7.478-1.773.864 4.738 1.655 9.546 2.78 14.152-.206 1.572-2.002 1.064-2.46-.078-.834-4.089-1.36-8.204-2.185-12.238-1.955.686-2.485.58-3.752.974-.004 1.593.52 3.434.705 4.965.473 3.812.976 9.893-3.92 10.984zm11.882-18.557c.63-1.106 2.417-1.45 3.747-1.002 3.95.952 5.82 5.598 5.222 10.423-.189 1.512-1.723 4.256-3.688 4.404-1.49.092-3.647-.693-4.666-1.793-2.562-2.761-2.213-9.163-.615-12.032zm2.263.255c-2.002.58-1.649 6.29-1.297 7.962.431 2.767 3.806 5.3 5.416 2.172 2.057-3.973-.038-10.37-4.119-10.134zm15.006-3.101l.066 1.182c-3.148.044-4.415.92-5.15 2.074-1.084 2.722-1.35 6.209.342 9.038.865 1.354 2.69 1.061 5.486-.171.985-.544 1.424-.792 1.91 1-2.88 1.56-7.785 2.765-9.21.003-1.332-2.552-2.316-8.776-.147-11.632.946-1.247 4.9-2.2 6.703-1.494zm8.087 20.552l-1.82-.646c1.203-3.34 1.42-4.203 2.605-7.965-3.732-2.3-6.122-8.758-7.137-12.901l1.559-.19c1.555 3.82 2.805 8.49 5.933 11.237 1.185-3.763 2.397-8.981 1.616-12.767.538-.01 1.062-.102 2.188.155.187 8.155-2.675 16.592-4.944 23.077zm10.913-12.444c.073.413.174.822.27 1.203-.197 1.627-2.058 1.074-2.52-.096-.525-3.945-1.2-8.26-1.738-12.118l1.202-.44c1.118 2.96 1.118 4.893 2.162 8.717 1.343-3.023 3.637-6.782 4.65-9.747 1.275-.51 1.607-.397 2.074 1.767.759 3.334 1.715 7.63 2.479 10.992-.197 1.627-2.057 1.074-2.52-.096-.336-2.556-.96-6.74-1.274-9.328-1.564 2.579-3.78 6.296-4.785 9.146zm-2.475-14.52l-.343-.82c2.001-.097 3.276-.606 4.522-1.764 1.283-.141 2.43.88 1.16 1.9-1.736.476-3.506.76-5.339.685zm14.516 9.923l-1.262-.062c-1.185-4.624-2.127-9.32-3.174-13.969-.133-1.882 2.132-1.456 2.519.096.591 4.644 1.49 9.262 1.917 13.935zm.778 1.995c-2.277-1.304-2.654 1.236-1.231 2.69 2.063 1.059 2.718-1.19 1.231-2.69z"/><path d="M116.986 50.219a7 7 0 1 0-3.957 13.43 7 7 0 0 0 3.957-13.43zm229.432 394.113l-12.23-9.768-2.923 13.692 15.153-3.924zM112.356 62.394a649.168 649.168 0 0 0-1.108 3.869l1.925.544a647.18 647.18 0 0 1 1.104-3.857l-1.92-.556zm-2.18 7.7c-.355 1.29-.706 2.575-1.052 3.858l1.931.52c.345-1.278.695-2.56 1.05-3.845l-1.928-.533zm-2.088 7.756a598.99 598.99 0 0 0-1.004 3.879l1.938.494a597.21 597.21 0 0 1 1-3.865l-1.934-.508zm-1.979 7.753c-.323 1.301-.64 2.6-.951 3.894l1.944.468c.31-1.29.627-2.584.948-3.88l-1.94-.482zm-1.872 7.783a551.58 551.58 0 0 0-.896 3.905l1.952.44c.291-1.294.589-2.59.892-3.891l-1.948-.454zm-1.769 7.846c-.284 1.307-.562 2.61-.835 3.91l1.957.41c.272-1.294.55-2.592.833-3.894l-1.955-.426zm-1.642 7.834a506.705 506.705 0 0 0-.779 3.943l1.964.38c.252-1.306.51-2.615.776-3.928l-1.961-.395zm-1.519 7.854a485.387 485.387 0 0 0-.712 3.937l1.97.348c.23-1.303.466-2.61.709-3.921l-1.967-.364zm-1.395 7.905a464.657 464.657 0 0 0-.647 3.958l1.975.314c.208-1.31.423-2.623.644-3.94l-1.972-.332zm-1.259 7.918a463.65 463.65 0 0 0-.577 3.97l1.98.28c.185-1.314.377-2.632.575-3.953l-1.978-.297zm-1.12 7.96c-.174 1.33-.342 2.656-.503 3.977l1.986.242c.16-1.316.327-2.635.5-3.958l-1.983-.26zm-.965 7.931a406.97 406.97 0 0 0-.426 3.977l1.99.203c.134-1.315.275-2.634.424-3.957l-1.988-.223zm-.816 7.999a389.139 389.139 0 0 0-.346 3.996l1.993.162c.108-1.32.223-2.646.345-3.975l-1.992-.183zm-.65 7.994a348.26 348.26 0 0 0-.263 4.008l1.996.12c.08-1.325.167-2.653.261-3.987l-1.995-.141zm-.482 8.018a355.854 355.854 0 0 0-.173 4.011l1.998.075c.05-1.325.108-2.654.173-3.988l-1.998-.098zm-.3 8.005c-.036 1.34-.063 2.676-.082 4.006l2 .03c.019-1.324.046-2.651.08-3.984l-1.999-.052zm-.116 8.051c-.003 1.344.002 2.683.016 4.017l2-.02a323.674 323.674 0 0 1-.016-3.993l-2-.004zm.082 8.028c.03 1.344.07 2.684.117 4.018l1.998-.071a309.786 309.786 0 0 1-.116-3.993l-2 .046zm.286 8.031c.065 1.342.14 2.678.222 4.01l1.997-.125a296.71 296.71 0 0 1-.222-3.982l-1.997.097zm.496 7.97c.101 1.335.212 2.666.331 3.991l1.992-.179a284.54 284.54 0 0 1-.329-3.964l-1.994.151zm.72 7.992c.14 1.334.288 2.663.445 3.986l1.986-.237a273.13 273.13 0 0 1-.442-3.957l-1.99.208zm.952 7.98c.178 1.328.366 2.651.563 3.968l1.978-.296a262.56 262.56 0 0 1-.56-3.939l-1.981.267zm1.193 7.96c.22 1.327.45 2.647.689 3.96l1.967-.357a252.832 252.832 0 0 1-.683-3.93l-1.973.328zm1.44 7.91c.262 1.318.534 2.632.816 3.94l1.955-.422c-.28-1.297-.55-2.6-.81-3.909l-1.96.39zm1.694 7.85c.305 1.31.62 2.612.946 3.91l1.94-.488a236.034 236.034 0 0 1-.938-3.876l-1.948.454zm1.956 7.79c.348 1.295.707 2.584 1.077 3.867l1.922-.554c-.366-1.271-.722-2.55-1.068-3.833l-1.931.52zm2.224 7.723c.395 1.283.8 2.56 1.215 3.83l1.9-.621c-.41-1.26-.812-2.525-1.203-3.797l-1.912.588zm2.502 7.651c.44 1.268.89 2.528 1.352 3.783l1.877-.69a217.551 217.551 0 0 1-1.34-3.748l-1.889.655zm2.778 7.55a210.8 210.8 0 0 0 1.494 3.738l1.85-.76a213.202 213.202 0 0 1-1.48-3.702l-1.864.725zm3.057 7.446c.532 1.23 1.075 2.452 1.63 3.668l1.82-.83a209.773 209.773 0 0 1-1.614-3.633l-1.836.795zm3.332 7.312a209.282 209.282 0 0 0 1.768 3.603l1.787-.898a207.283 207.283 0 0 1-1.751-3.568l-1.804.863zm3.621 7.203a207.703 207.703 0 0 0 1.91 3.538l1.75-.967a205.708 205.708 0 0 1-1.89-3.504l-1.77.933zm3.889 7.041a207.078 207.078 0 0 0 2.047 3.465l1.712-1.034a205.072 205.072 0 0 1-2.027-3.431l-1.732 1zm4.17 6.904c.716 1.134 1.442 2.26 2.18 3.38l1.67-1.1c-.73-1.109-1.45-2.224-2.158-3.347l-1.691 1.067zm4.365 6.631a200.152 200.152 0 0 0 2.303 3.291l1.628-1.162a206.591 206.591 0 0 1-2.282-3.26l-1.65 1.131zm4.672 6.54c.799 1.074 1.608 2.14 2.43 3.2l1.58-1.223a208.743 208.743 0 0 1-2.405-3.17l-1.605 1.193zm4.921 6.358a207.446 207.446 0 0 0 2.546 3.103l1.534-1.283a211.813 211.813 0 0 1-2.522-3.074l-1.558 1.254zm5.167 6.18c.876 1.008 1.762 2.01 2.66 3.005l1.485-1.339a216.527 216.527 0 0 1-2.635-2.978l-1.51 1.311zm5.391 5.98c.913.976 1.837 1.946 2.771 2.91l1.436-1.392a220.754 220.754 0 0 1-2.746-2.884l-1.461 1.366zm5.59 5.766c.947.942 1.903 1.878 2.87 2.808l1.387-1.442a226.57 226.57 0 0 1-2.846-2.783l-1.411 1.417zm5.802 5.576c.978.907 1.966 1.81 2.965 2.705l1.335-1.49a228.63 228.63 0 0 1-2.94-2.681l-1.36 1.466zm5.987 5.369a242.92 242.92 0 0 0 3.053 2.603l1.285-1.533a240.936 240.936 0 0 1-3.028-2.582l-1.31 1.512zm6.141 5.15a273.79 273.79 0 0 0 3.142 2.506l1.235-1.573a249.426 249.426 0 0 1-3.117-2.487l-1.26 1.553zm6.333 4.97c1.062.807 2.133 1.608 3.213 2.403l1.186-1.611a258.816 258.816 0 0 1-3.19-2.384l-1.209 1.592zm6.47 4.762a266.98 266.98 0 0 0 3.29 2.307l1.136-1.645a269.053 269.053 0 0 1-3.264-2.29l-1.161 1.628zm6.624 4.574a281.59 281.59 0 0 0 3.353 2.21l1.088-1.678a280.196 280.196 0 0 1-3.328-2.194l-1.113 1.662zm6.718 4.36a298.37 298.37 0 0 0 3.41 2.114l1.041-1.707a292.088 292.088 0 0 1-3.386-2.1l-1.065 1.693zm6.88 4.2c1.147.68 2.303 1.354 3.467 2.023l.997-1.734a304.912 304.912 0 0 1-3.446-2.01l-1.019 1.72zm6.954 3.996c1.163.65 2.334 1.293 3.514 1.932l.953-1.759a318.46 318.46 0 0 1-3.493-1.92l-.974 1.747zm7.045 3.816c1.18.62 2.368 1.235 3.563 1.846l.91-1.782a332.864 332.864 0 0 1-3.542-1.834l-.93 1.77zm7.157 3.654c1.193.591 2.393 1.178 3.601 1.76l.868-1.802a348.036 348.036 0 0 1-3.58-1.75l-.89 1.792zm7.23 3.483c1.207.564 2.42 1.124 3.642 1.679l.828-1.82a364.029 364.029 0 0 1-3.622-1.67l-.847 1.81zm7.328 3.33a366.43 366.43 0 0 0 3.678 1.602l.789-1.838a380.802 380.802 0 0 1-3.66-1.593l-.807 1.83zm7.385 3.17c1.229.512 2.465 1.02 3.708 1.524l.75-1.853a398.352 398.352 0 0 1-3.689-1.517l-.77 1.846zm7.434 3.014c1.239.487 2.484.971 3.736 1.45l.715-1.867a416.558 416.558 0 0 1-3.718-1.444l-.733 1.86zm7.476 2.863c1.248.464 2.503.925 3.764 1.382l.68-1.881a435.542 435.542 0 0 1-3.746-1.376l-.698 1.875zm7.541 2.73c1.256.44 2.518.878 3.786 1.312l.648-1.892c-1.264-.432-2.52-.868-3.77-1.308l-.664 1.887zm7.6 2.598c1.264.42 2.534.836 3.81 1.249l.615-1.904c-1.27-.41-2.535-.825-3.793-1.243l-.631 1.898zm7.655 2.473c1.27.399 2.546.794 3.828 1.185l.584-1.913c-1.277-.39-2.548-.783-3.813-1.18l-.6 1.908zm7.666 2.34c1.276.378 2.558.753 3.846 1.124l.554-1.922c-1.283-.37-2.56-.743-3.832-1.12l-.568 1.917zm7.706 2.22c1.281.36 2.569.715 3.862 1.067l.525-1.93a564.58 564.58 0 0 1-3.848-1.062l-.54 1.926zm7.74 2.107c1.286.34 2.579.677 3.877 1.01l.497-1.937a564.46 564.46 0 0 1-3.863-1.006l-.511 1.933zm7.768 1.995c1.292.323 2.589.641 3.891.957l.471-1.944a588.295 588.295 0 0 1-3.878-.953l-.484 1.94zm7.79 1.888c1.297.305 2.598.606 3.904.904l.445-1.95a612.894 612.894 0 0 1-3.89-.901l-.458 1.947z" fill-rule="nonzero"/></g></svg>