<svg width="169" height="168" xmlns="http://www.w3.org/2000/svg"><g transform="translate(-1.006)" fill="none" fill-rule="evenodd"><rect fill-opacity=".205" fill="#016B2D" x="1.006" width="169" height="168" rx="84"/><g transform="rotate(-20 129.332 22.457)"><rect fill="#016B2D" opacity=".204" x=".508" y="6.149" width="88.524" height="110" rx="2"/><rect fill="#016B2D" x="7.042" width="88.524" height="110" rx="2"/><path d="M9.042 0h86.523C71.492 16.124 53.553 32.943 41.747 50.457 29.942 67.971 23.166 87.819 21.42 110H9.042a2 2 0 0 1-2-2V2a2 2 0 0 1 2-2z" fill="#FFF" opacity=".303"/><path fill="#FFF" opacity=".4" d="M13.077 6h76.452v74H13.077z"/><ellipse fill="#FFF" opacity=".505" cx="51.304" cy="31" rx="13.077" ry="13"/><path d="M77.458 74c0-14.36-11.71-26-26.154-26-14.445 0-26.155 11.64-26.155 26h52.31z" fill="#FFF" opacity=".505"/></g><path fill="#00461D" opacity=".924" d="M47.28 120l12.17 22.139 24.635-8.896z"/><g transform="rotate(20 -4.118 240.467)"><rect fill="#016B2D" width="88.524" height="110" rx="2"/><path d="M2 0h86.524C64.45 16.124 46.51 32.943 34.706 50.457 22.9 67.971 16.124 87.819 14.378 110H2a2 2 0 0 1-2-2V2a2 2 0 0 1 2-2z" fill="#FFF" opacity=".303"/><path fill="#FFF" opacity=".4" d="M6.036 6h76.452v74H6.036z"/><ellipse fill="#CFD72B" cx="44.262" cy="31" rx="13.077" ry="13"/><path d="M70.417 74c0-14.36-11.71-26-26.155-26S18.107 59.64 18.107 74h52.31z" fill="#CFD72B"/></g><g transform="translate(121.72 120)"><ellipse fill="#DA2630" cx="24.143" cy="24" rx="24.143" ry="24"/><path d="M28.827 27.803V30H19.12v-.505c0-.522.066-.988.197-1.4a3.72 3.72 0 0 1 .666-1.2c.312-.388.734-.79 1.266-1.204.532-.414 1.23-.899 2.093-1.452 1.026-.65 1.729-1.175 2.109-1.573.38-.399.57-.912.57-1.539 0-.665-.2-1.146-.599-1.443-.4-.298-.876-.446-1.43-.446-.628 0-1.143.178-1.547.534-.404.356-.606.868-.606 1.536v.448h-2.772v-.378c0-.768.168-1.48.504-2.138.336-.658.883-1.189 1.64-1.593.758-.404 1.722-.606 2.892-.606a6.62 6.62 0 0 1 2.36.408c.72.273 1.296.706 1.73 1.299.436.593.653 1.344.653 2.252 0 .61-.105 1.163-.316 1.661-.21.498-.567.982-1.068 1.453-.5.47-1.192.961-2.073 1.474-.84.486-1.446.865-1.82 1.136-.372.27-.684.63-.934 1.079h6.193z" fill="#FFF"/></g></g></svg>