<svg width="64" height="64" xmlns="http://www.w3.org/2000/svg"><defs><linearGradient x1="50%" y1="31.582%" x2="50%" y2="100%" id="a"><stop stop-color="#3BA933" offset="0%"/><stop stop-color="#F7EB28" offset="100%"/></linearGradient><linearGradient x1="50%" y1="0%" x2="50%" y2="100%" id="b"><stop stop-color="#FBD249" offset="0%"/><stop stop-color="#F5A623" offset="100%"/></linearGradient></defs><g fill="none" fill-rule="evenodd"><path fill="url(#a)" d="M23.718 31L36 36.677 24.282 64l-4.595-6.49-7.687.813z"/><path fill="url(#a)" d="M40.282 31L52 58.323l-7.687-.812L39.718 64 28 36.677z"/><path fill="url(#b)" d="M32 50.22l-6.008 3.103-4.067-5.403-6.76.19-1.32-6.633-6.171-2.762 1.688-6.548L5 27l4.362-5.167-1.688-6.548 6.172-2.762 1.32-6.632 6.76.189L25.991.677 32 3.78 38.008.677l4.067 5.403 6.76-.19 1.32 6.633 6.171 2.762-1.688 6.548L59 27l-4.362 5.167 1.688 6.548-6.172 2.762-1.32 6.632-6.76-.189-4.066 5.403z"/><circle fill="#DA2630" cx="32" cy="27" r="20"/><text font-family="ArialRoundedMTBold, Arial Rounded MT Bold" font-size="24" fill="#FFF"><tspan x="25" y="35">3</tspan></text></g></svg>