<svg width="168" height="168" xmlns="http://www.w3.org/2000/svg"><g fill="none" fill-rule="evenodd"><rect fill-opacity=".205" fill="#016B2D" width="168" height="168" rx="84"/><path d="M119 42c0-6.627-5.373-12-12-12s-12 5.373-12 12-5.373 12-12 12-12-5.373-12-12-5.373-12-12-12-12 5.373-12 12c0 19.882 16.118 36 36 36s36-16.118 36-36z" fill="#CFD72B" fill-rule="nonzero"/><path d="M36 54h96v75a8 8 0 0 1-8 8H44a8 8 0 0 1-8-8V54z" fill="#016B2D"/><path d="M83 40c5.523 0 10 4.477 10 10v6H73v-6c0-5.523 4.477-10 10-10z" fill="#CFD72B"/><rect fill="#016B2D" x="32" y="54" width="104" height="16" rx="2"/><path d="M107 42c0 13.255-10.745 24-24 24S59 55.255 59 42" stroke="#016B2D" stroke-width="8" stroke-linecap="round"/><g transform="translate(120 120)"><circle fill="#DA2630" cx="24" cy="24" r="24"/><path d="M19.686 25.663h2.79c0 .38.066.76.198 1.138.132.378.371.7.718.964.348.266.816.398 1.404.398.56 0 1.002-.108 1.325-.323.324-.215.544-.469.66-.76.115-.292.173-.572.173-.842 0-1.151-.66-1.727-1.977-1.727h-1.262v-2.07h.954c1.356 0 2.035-.528 2.035-1.586 0-.396-.148-.764-.444-1.105-.296-.342-.82-.512-1.573-.512-.578 0-1.058.155-1.442.466-.384.31-.581.928-.593 1.854h-2.646c0-.677.117-1.35.35-2.02.233-.669.708-1.252 1.426-1.75s1.734-.747 3.05-.747c1.2 0 2.136.192 2.805.577.67.386 1.123.845 1.358 1.378.236.533.354 1.07.354 1.608 0 .824-.223 1.46-.67 1.91a3.18 3.18 0 0 1-1.58.881v.053c.692.064 1.308.341 1.85.83.542.49.813 1.232.813 2.228 0 1.12-.321 1.965-.964 2.536s-1.325.934-2.046 1.088c-.72.153-1.337.23-1.85.23-1.395 0-2.478-.248-3.25-.745-.772-.496-1.293-1.094-1.562-1.792a5.952 5.952 0 0 1-.404-2.16z" fill="#FFF"/></g><path fill="#00481E" d="M36 70h96v7l-96-4.035z"/><path fill="#FFF" opacity=".231" d="M72 54h24v83H72z"/></g></svg>