<svg width="168" height="168" xmlns="http://www.w3.org/2000/svg"><g fill="none" fill-rule="evenodd"><rect fill-opacity=".205" fill="#016B2D" width="168" height="168" rx="84"/><rect fill="#016B2D" x="39" y="29" width="88" height="110" rx="2"/><path d="M41 29h86c-23.93 16.124-41.764 32.943-53.5 50.457C61.764 96.971 55.03 116.819 53.293 139H41a2 2 0 0 1-2-2V31a2 2 0 0 1 2-2z" fill="#FFF" opacity=".303"/><rect fill="#016B2D" opacity=".421" x="46" y="36" width="88" height="110" rx="2"/><circle fill="#DA2630" cx="144" cy="144" r="24"/><path d="M140.197 141.145v-1.494h.378c.492 0 .98-.095 1.466-.284a3.528 3.528 0 0 0 1.237-.795c.34-.341.548-.732.624-1.171h2.232V150h-2.966v-8.855h-2.97z" fill="#FFF"/><rect fill="#FFF" x="56" y="69" width="55" height="12" rx="2"/><rect fill="#016B2D" x="60" y="73" width="23" height="4" rx="2"/><rect fill="#FFF" opacity=".997" x="56" y="53" width="34" height="8" rx="2"/><rect fill="#FFF" x="56" y="89" width="55" height="12" rx="2"/><rect fill="#016B2D" x="60" y="93" width="23" height="4" rx="2"/><rect fill="#CFD72B" x="56" y="109" width="55" height="12" rx="2"/></g></svg>