<svg width="46" height="64" xmlns="http://www.w3.org/2000/svg"><g fill="none" fill-rule="evenodd"><path d="M27.556 0l18.225 21.333v35.2c0 4.124-2.856 7.467-6.378 7.467H6.597C3.075 64 .22 60.657.22 56.533V7.467C.219 3.343 3.075 0 6.597 0h20.96z" fill="#E94848"/><path d="M21.466 23.467c-1.194 0-2.177 1.15-2.177 2.548 0 1.738.825 3.896 1.694 5.924-.679 2.489-1.45 5.156-2.435 7.406-2.018.926-3.817 1.615-4.898 2.636a.742.742 0 0 0-.048.063c-.395.473-.626 1.118-.626 1.808 0 1.398.983 2.548 2.177 2.548a2.01 2.01 0 0 0 1.551-.74.69.69 0 0 0 .041-.04c.796-1.113 1.735-3.132 2.571-4.977 1.928-.888 3.949-1.791 5.898-2.333 1.424 1.342 3.483 2.23 5.177 2.23 1.195 0 2.177-1.15 2.177-2.549 0-1.398-.982-2.548-2.177-2.548-1.359 0-3.333.568-4.843 1.163a18.833 18.833 0 0 1-3.157-4.81c.578-2.082 1.252-4.166 1.252-5.781 0-1.398-.982-2.548-2.177-2.548zm0 1.529c.489 0 .87.447.87 1.019 0 .765-.35 2.173-.754 3.687-.542-1.473-.987-2.886-.987-3.687 0-.572.382-1.02.871-1.02zm.374 8.719a20.316 20.316 0 0 0 2.259 3.36c-1.291.414-2.552.943-3.796 1.497.6-1.587 1.082-3.235 1.537-4.857zm8.551 3.257c.489 0 .871.447.871 1.02 0 .571-.382 1.018-.87 1.018-.982 0-2.376-.518-3.49-1.242 1.279-.423 2.675-.796 3.49-.796zm-12.993 4.563c-.612 1.279-1.22 2.473-1.646 3.073a.766.766 0 0 1-.599.263c-.489 0-.87-.447-.87-1.02 0-.268.097-.536.23-.708.511-.462 1.622-1.017 2.885-1.608z" fill="#FFF" fill-rule="nonzero"/><path d="M45.781 21.333H34.257c-3.523 0-6.7-3.72-6.7-7.843V0L45.78 21.333z" fill="#C53C3C"/></g></svg>